<svg width="24" height="14" viewBox="0 0 24 14" fill="none" xmlns="http://www.w3.org/2000/svg">
<path d="M23.7859 12.3676C23.7214 12.2596 23.3224 11.3925 21.4023 9.61036C19.3921 7.74422 19.6621 8.04725 22.0833 4.82051C23.5579 2.85536 24.1475 1.65527 23.963 1.14223C23.7874 0.653198 22.7029 0.782208 22.7029 0.782208L19.0966 0.803209C19.0966 0.803209 18.8296 0.767207 18.6301 0.885715C18.4366 1.00272 18.312 1.27274 18.312 1.27274C18.312 1.27274 17.7405 2.79386 16.9785 4.08695C15.3718 6.81566 14.7283 6.95967 14.4658 6.79015C13.8552 6.39562 14.0082 5.20304 14.0082 4.35697C14.0082 1.71228 14.4088 0.609695 13.2267 0.324674C12.8336 0.230167 12.5456 0.167162 11.5421 0.156661C10.255 0.14316 9.16438 0.161162 8.54784 0.462684C8.13681 0.663699 7.82028 1.11223 8.0138 1.13773C8.25231 1.16924 8.79235 1.28325 9.07887 1.67327C9.4494 2.17581 9.4359 3.3069 9.4359 3.3069C9.4359 3.3069 9.64892 6.41963 8.93937 6.80665C8.45183 7.07217 7.78428 6.53063 6.35168 4.05395C5.61812 2.78636 5.06308 1.38375 5.06308 1.38375C5.06308 1.38375 4.95657 1.12273 4.76606 0.983223C4.53504 0.81371 4.21102 0.759706 4.21102 0.759706L0.78177 0.780708C0.78177 0.780708 0.267232 0.795709 0.0782185 1.01923C-0.0897937 1.21874 0.0647175 1.62977 0.0647175 1.62977C0.0647175 1.62977 2.74991 7.91074 5.78914 11.0775C8.57784 13.9802 11.7431 13.7897 11.7431 13.7897H13.1772C13.1772 13.7897 13.6107 13.7417 13.8312 13.5032C14.0352 13.2841 14.0277 12.8731 14.0277 12.8731C14.0277 12.8731 13.9992 10.9485 14.8933 10.6649C15.7739 10.3859 16.9049 12.5251 18.1035 13.3486C19.0096 13.9712 19.6982 13.8347 19.6982 13.8347L22.9039 13.7897C22.9039 13.7897 24.581 13.6862 23.7859 12.3676Z" fill="#F2F2F2"/>
</svg>
